<svg xmlns="http://www.w3.org/2000/svg" xmlns:xlink="http://www.w3.org/1999/xlink" width="103.135" height="123.762" viewBox="0 0 103.135 123.762">
  <defs>
    <linearGradient id="linear-gradient" x1="0.5" x2="0.5" y2="1" gradientUnits="objectBoundingBox">
      <stop offset="0" stop-color="#41a9e9"/>
      <stop offset="1" stop-color="#007ac3"/>
    </linearGradient>
  </defs>
  <path id="svgviewer-output_1_" data-name="svgviewer-output (1)" d="M97.821,1H15.313A10.344,10.344,0,0,0,5,11.313V114.448a10.344,10.344,0,0,0,10.313,10.313H97.821a10.344,10.344,0,0,0,10.313-10.313V11.313A10.344,10.344,0,0,0,97.821,1ZM35.94,104.135a5.172,5.172,0,0,1-5.157,5.157H20.47a5.172,5.172,0,0,1-5.157-5.157v-2.578A5.172,5.172,0,0,1,20.47,96.4H30.784a5.172,5.172,0,0,1,5.157,5.157Zm0-20.627a5.172,5.172,0,0,1-5.157,5.157H20.47a5.172,5.172,0,0,1-5.157-5.157V80.93a5.172,5.172,0,0,1,5.157-5.157H30.784A5.172,5.172,0,0,1,35.94,80.93Zm0-20.627a5.172,5.172,0,0,1-5.157,5.157H20.47a5.172,5.172,0,0,1-5.157-5.157V60.3a5.172,5.172,0,0,1,5.157-5.157H30.784A5.172,5.172,0,0,1,35.94,60.3Zm30.94,41.254a5.172,5.172,0,0,1-5.157,5.157H51.411a5.172,5.172,0,0,1-5.157-5.157v-2.578A5.172,5.172,0,0,1,51.411,96.4H61.724a5.172,5.172,0,0,1,5.157,5.157Zm0-20.627a5.172,5.172,0,0,1-5.157,5.157H51.411a5.172,5.172,0,0,1-5.157-5.157V80.93a5.172,5.172,0,0,1,5.157-5.157H61.724a5.172,5.172,0,0,1,5.157,5.157Zm0-20.627a5.172,5.172,0,0,1-5.157,5.157H51.411a5.172,5.172,0,0,1-5.157-5.157V60.3a5.172,5.172,0,0,1,5.157-5.157H61.724A5.172,5.172,0,0,1,66.881,60.3Zm30.94,41.254a5.172,5.172,0,0,1-5.157,5.157H82.351a5.172,5.172,0,0,1-5.157-5.157v-2.578A5.172,5.172,0,0,1,82.351,96.4H92.665a5.172,5.172,0,0,1,5.157,5.157Zm0-20.627a5.172,5.172,0,0,1-5.157,5.157H82.351a5.172,5.172,0,0,1-5.157-5.157V80.93a5.172,5.172,0,0,1,5.157-5.157H92.665a5.172,5.172,0,0,1,5.157,5.157Zm0-20.627a5.172,5.172,0,0,1-5.157,5.157H82.351a5.172,5.172,0,0,1-5.157-5.157V60.3a5.172,5.172,0,0,1,5.157-5.157H92.665A5.172,5.172,0,0,1,97.821,60.3Zm0-23.205a5.172,5.172,0,0,1-5.157,5.157H20.47a5.172,5.172,0,0,1-5.157-5.157V19.049a5.172,5.172,0,0,1,5.157-5.157H92.665a5.172,5.172,0,0,1,5.157,5.157Z" transform="translate(-5 -1)" fill="url(#linear-gradient)"/>
</svg>
