<svg xmlns="http://www.w3.org/2000/svg" xmlns:xlink="http://www.w3.org/1999/xlink" width="120" height="120" viewBox="0 0 120 120">
  <defs>
    <linearGradient id="linear-gradient" x1="0.5" x2="0.5" y2="1" gradientUnits="objectBoundingBox">
      <stop offset="0" stop-color="#c2a3d8"/>
      <stop offset="1" stop-color="#b062e8"/>
    </linearGradient>
  </defs>
  <path id="svgviewer-output_5_" data-name="svgviewer-output (5)" d="M57,85.325A2.025,2.025,0,0,1,59.025,87.1v28.8a6.1,6.1,0,0,1-5.8,6.1H12.176a6.125,6.125,0,0,1-6.1-5.7V87.375A2.025,2.025,0,0,1,7.852,85.35H57Zm59.023,0a2.05,2.05,0,0,1,2.025,1.775v28.8a6.1,6.1,0,0,1-5.825,6.1H71.175a6.1,6.1,0,0,1-6.075-5.7V87.375a2.025,2.025,0,0,1,1.775-2.025H115.9Zm-74.8,8.425L41,93.925l-11.5,12.65-5.275-5a1.55,1.55,0,0,0-1.975-.175l-.2.175-2.175,1.95A1.225,1.225,0,0,0,19.7,105.3l.175.2,7.5,7.075a3.125,3.125,0,0,0,2.175.9,2.875,2.875,0,0,0,2.175-.9l13.8-14.6a1.575,1.575,0,0,0,.15-1.8L45.526,96l-2.175-1.95a1.525,1.525,0,0,0-2.125-.3Zm59.023,0-.225.175-11.65,12.65-5.275-5a1.525,1.525,0,0,0-1.95-.175l-.225.175-2.175,1.95a1.225,1.225,0,0,0-.15,1.775l.15.2,7.5,7.075a3.125,3.125,0,0,0,2.175.9,2.85,2.85,0,0,0,2.175-.9L104.5,97.85a1.625,1.625,0,0,0,0-1.8v-.175l-2.175-1.95a1.525,1.525,0,0,0-2.075-.175Zm-46.9-28.8a5.9,5.9,0,0,1,5.675,5.7v6.525a2.025,2.025,0,0,1-1.65,2.025H3.9A1.95,1.95,0,0,1,2,77.45V71.075a5.95,5.95,0,0,1,5.325-6.1H53.35Zm62.948,0a5.9,5.9,0,0,1,5.7,5.7v6.525a2.025,2.025,0,0,1-1.65,2.025H66.85a1.95,1.95,0,0,1-1.875-1.775v-6.35a5.95,5.95,0,0,1,5.325-6.1h46Zm-30-42.5a2.025,2.025,0,0,1,2,1.775v28.7a6.1,6.1,0,0,1-5.7,6.1H41.676a6.15,6.15,0,0,1-6.1-5.725V24.5a2.025,2.025,0,0,1,1.775-2H86.4ZM70.625,30.875l-.2.175L58.775,43.7l-5.275-5a1.525,1.525,0,0,0-1.95-.175l-.225.175L49.15,40.65a1.25,1.25,0,0,0-.175,1.775l.175.2,7.5,7.05a3.05,3.05,0,0,0,2.175.925A2.825,2.825,0,0,0,61,49.675L74.825,35.1a1.625,1.625,0,0,0,.125-1.8l-.125-.175-2.175-1.95a1.55,1.55,0,0,0-1.925-.375ZM86.4,2a6.1,6.1,0,0,1,6.075,5.7v6.525A2.075,2.075,0,0,1,90.7,16.25H33.551a2.025,2.025,0,0,1-2.025-1.75V8.1A6.1,6.1,0,0,1,37.2,2Z" transform="translate(-1.999 -2)" fill="url(#linear-gradient)"/>
</svg>
