<svg id="Group_2780" data-name="Group 2780" xmlns="http://www.w3.org/2000/svg" xmlns:xlink="http://www.w3.org/1999/xlink" width="123.513" height="137.255" viewBox="0 0 123.513 137.255">
  <defs>
    <linearGradient id="linear-gradient" x1="0.5" x2="0.5" y2="1" gradientUnits="objectBoundingBox">
      <stop offset="0" stop-color="#bda2e2"/>
      <stop offset="1" stop-color="#8846e4"/>
    </linearGradient>
  </defs>
  <path id="Path_1926" data-name="Path 1926" d="M849.368,1169.41a27.636,27.636,0,0,0-3.781-1.23H745.861a30.606,30.606,0,0,0-3.413,1.079,13.351,13.351,0,0,0-8.427,11.891c-.043.575-.043,1.158-.043,1.74q-.006,47.106-.018,94.211c0,6.022,2.42,10.6,7.87,13.2a17.743,17.743,0,0,0,6.333,1.372c3.245.222,6.515.058,9.778.058h1.5c-.937,5.046.414,9.11,4.682,11.869a25.1,25.1,0,0,0,4.528,1.837h2.68c3.778-.654,6.444-2.977,8.881-5.75,2.148-2.444,4.421-4.785,6.708-7.1a2.868,2.868,0,0,1,1.8-.811q8.036-.1,16.068,0a2.918,2.918,0,0,1,1.823.783q4.674,4.6,9.22,9.334a10.961,10.961,0,0,0,5.361,3.553h2.144c3.413-.908,5.493-3.563,7.595-6.061,1.869-2.223,1.716-4.86.447-7.644.622,0,1.13.007,1.633,0,4.285-.068,8.6.136,12.844-.275,6.247-.6,11.233-6.237,11.562-12.512.028-.536.05-1.072.05-1.6q.005-47.363.007-94.722C857.477,1176.532,854.851,1172.076,849.368,1169.41Zm-105.583,4.285a9.26,9.26,0,0,1,3.992-.908q47.958-.075,95.923-.029a9.036,9.036,0,0,1,9.174,9.042c.043,1.5.007,3.013.007,4.585h-114.1C738.031,1180.682,738.6,1176.268,743.785,1173.695Zm31,125.018a6.3,6.3,0,0,1-10.772-2.273,5.836,5.836,0,0,1,1.48-6.3c7.1-6.78,14.278-13.488,21.425-20.218a2.315,2.315,0,0,1,.407-.193c1.841,1.859,3.71,3.652,5.443,5.572.386.422.189,1.319.433,1.926.579,1.44-.229,2.259-1.122,3.2C786.289,1286.5,780.571,1292.637,774.781,1298.713Zm-7.666-34.466a1.3,1.3,0,0,1-.157,1.165c-.79.9-1.687,1.7-2.534,2.534-3.245-3.242-6.426-6.423-9.632-9.625a6.768,6.768,0,0,0,.676-.722c1.333-1.88,2.895-2.666,5.136-1.387a2.078,2.078,0,0,0,2.555-.593c.851-.855,1.726-1.683,2.559-2.556a2.261,2.261,0,0,0,.247-3.345,1.913,1.913,0,0,1,.225-2.838c3.953-3.934,7.845-7.934,11.851-11.815a18.634,18.634,0,0,1,11-4.978c-.579.49-.886.75-1.2,1.008-1.569,1.326-3.184,2.595-4.7,3.981a6.288,6.288,0,0,0-.4,9.192c2.541,2.81,2.544,2.81-.136,5.493q-3.313,3.318-6.626,6.633c-1.129,1.125-1.7,1.169-3.027.3a2.269,2.269,0,0,0-3.249.279,11.193,11.193,0,0,1-.861.84C766.536,1259.5,765.66,1261.53,767.115,1264.246Zm17.541-9.739c4.742,4.725,9.607,9.564,14.5,14.435-.972.926-2,1.908-2.905,2.762-4.786-4.785-9.632-9.632-14.417-14.413C782.676,1256.458,783.716,1255.437,784.656,1254.507Zm20.668-4.188c-3.7-9.25,1.622-19.564,12.559-22.119a25.454,25.454,0,0,1,3.838-.483,4.69,4.69,0,0,1,1.347.3,5.162,5.162,0,0,1-.665,1.2c-2.216,2.266-4.439,4.529-6.712,6.733a6.154,6.154,0,0,0-1.973,4.789c.036,1.473-.011,2.945.01,4.418a5.384,5.384,0,0,0,5.625,5.657c1.608.021,3.216-.021,4.821.011a5.649,5.649,0,0,0,4.314-1.791q3.394-3.425,6.819-6.815c.332-.333.708-.622,1.255-1.1a6.039,6.039,0,0,1,.315,1.183c.1,7.8-4.886,15.8-13.006,17.68a14.968,14.968,0,0,1-9.074-.554,3.083,3.083,0,0,0-3.9.972c-1.49,1.719-3.1,3.331-4.668,4.982a3.32,3.32,0,0,1-3.727.161c-1.765-1.705-3.506-3.431-5.361-5.254,2.591-2.445,4.982-4.718,7.394-6.969A2.51,2.51,0,0,0,805.324,1250.319Zm-13.27,36.782c1.6-1.7,3.009-3.2,4.306-4.571l4.743,4.571Zm34.452,10.432c-.722.726-1.447,1.455-2.177,2.177-1.583,1.558-2.648,1.565-4.2-.014q-9.446-9.58-18.884-19.163c-1.154-1.168-2.434-2.219-3.559-3.234,2.355-2.408,4.435-4.539,6.494-6.644,1.38,1.33,2.813,2.659,4.185,4.05q9.076,9.194,18.12,18.416C828.168,1294.835,828.171,1295.857,826.506,1297.533Zm16.308-10.346c-4.868-.143-9.739-.007-14.61-.057a2.728,2.728,0,0,1-1.762-.636c-5.615-5.629-11.183-11.312-16.758-16.98-.15-.157-.275-.339-.49-.6,1.426-1.512,2.8-3.02,4.249-4.46a1.438,1.438,0,0,1,1.187-.236c13.927,3.881,26.661-7.041,26.836-21.747.032-2.663-1.033-4.478-3.106-5.278a5.2,5.2,0,0,0-5.972,1.447c-2.23,2.259-4.45,4.528-6.755,6.7a3.745,3.745,0,0,1-2.08.847c-1.329.133-2.68.015-4.017.043-.858.022-1.237-.368-1.233-1.194,0-1.519-.068-3.045.036-4.557a2.646,2.646,0,0,1,.775-1.458c2.177-2.245,4.4-4.443,6.612-6.658,2-2.009,2.559-4.06,1.608-6.151-1.079-2.38-3.045-3.148-5.557-3.113-10.264.136-19.231,6.922-21.6,16.44a19.62,19.62,0,0,0,.161,10.2,1.455,1.455,0,0,1-.49,1.726c-1.944,1.78-3.842,3.606-5.643,5.3-2.052-2.03-4.064-4.024-5.936-5.883a24.994,24.994,0,0,0,.89-4.424c.057-1.926-1.1-3.41-2.47-4.725-1.644-1.576-1.619-2.373.118-3.817,2.23-1.855,4.507-3.656,6.783-5.453,1.612-1.276,2.191-2.759,1.658-4.432a3.774,3.774,0,0,0-4.024-2.674A24.207,24.207,0,0,0,774,1232.546c-3.681,3.645-7.305,7.351-10.979,11.011a6.4,6.4,0,0,0-1.887,6.708c.275.954-.064,1.376-.968.983-2.8-1.215-4.914-.307-6.737,1.894-.683.822-1.526,1.508-2.252,2.3a4.177,4.177,0,0,0,0,5.929q5.045,5.184,10.236,10.232a4.145,4.145,0,0,0,5.829-.018c1.247-1.151,2.441-2.363,3.6-3.6a4.45,4.45,0,0,0,.779-4.875.919.919,0,1,1,1.176-1.394,6.811,6.811,0,0,0,5.111-.926c1.948,1.94,3.867,3.846,5.84,5.815l-10.457,9.863c-3.577,3.374-7.141,6.758-10.743,10.1a2.252,2.252,0,0,1-1.383.568c-4.467.042-8.935.075-13.4.01-5.443-.078-9.192-4.06-9.2-9.724q-.016-26.338,0-52.676v-33.626H852.892v1.526c0,28.148-.068,56.3.054,84.444C852.97,1282.945,848.814,1287.366,842.814,1287.187Z" transform="translate(-733.96 -1168.18)" fill="url(#linear-gradient)"/>
  <path id="Path_1927" data-name="Path 1927" d="M951.4,1268.94q-4.348,3.345-8.77,6.587a2.257,2.257,0,0,1-3.324-.315,2.306,2.306,0,0,1,.654-3.377c2.12-1.619,4.26-3.209,6.469-4.867-2.241-1.684-4.392-3.27-6.5-4.907a2.294,2.294,0,0,1-.411-3.581,2.261,2.261,0,0,1,3.052-.118c2.981,2.194,5.951,4.4,8.881,6.665C952.951,1266.187,952.926,1267.76,951.4,1268.94Z" transform="translate(-865.605 -1225.788)" fill="url(#linear-gradient)"/>
  <path id="Path_1928" data-name="Path 1928" d="M849.285,1275.467a2.14,2.14,0,0,1-2.931.161c-3.049-2.252-6.094-4.51-9.088-6.83a2.168,2.168,0,0,1-.018-3.653c2.991-2.323,6.029-4.589,9.085-6.83a2.266,2.266,0,1,1,2.72,3.624c-2.137,1.68-4.331,3.288-6.637,5.029,2.259,1.7,4.414,3.277,6.522,4.914A2.278,2.278,0,0,1,849.285,1275.467Z" transform="translate(-799.697 -1225.786)" fill="url(#linear-gradient)"/>
  <path id="Path_1929" data-name="Path 1929" d="M903.234,1253.969c-.036.157-.118.5-.2.847q-2.149,8.62-4.31,17.24c-.433,1.712-1.562,2.505-2.956,2.127-1.3-.357-1.862-1.583-1.447-3.248q2.176-8.755,4.371-17.5a2.312,2.312,0,0,1,2.58-1.994A2.354,2.354,0,0,1,903.234,1253.969Z" transform="translate(-836.921 -1221.669)" fill="url(#linear-gradient)"/>
  <path id="Path_1930" data-name="Path 1930" d="M941.551,1196.013a2.233,2.233,0,0,1-2.427,2.28c-5.539.021-11.075.011-16.611.011H920.9c-5.94,0-11.88-.011-17.819.007a2.389,2.389,0,0,1-2.5-1.408,2.262,2.262,0,0,1,1.79-3.124,8.282,8.282,0,0,1,1.333-.043q17.283-.006,34.563,0c.314,0,.629-.014.94.011A2.305,2.305,0,0,1,941.551,1196.013Z" transform="translate(-840.917 -1184.598)" fill="url(#linear-gradient)"/>
  <path id="Path_1931" data-name="Path 1931" d="M772.815,1196.066a2.281,2.281,0,0,1-2.227,2.226c-.4.029-.8,0-1.2,0-2.316.01-3.406-.7-3.435-2.227-.025-1.565,1.126-2.337,3.5-2.33a9.183,9.183,0,0,1,1.333.036A2.322,2.322,0,0,1,772.815,1196.066Z" transform="translate(-754.516 -1184.6)" fill="url(#linear-gradient)"/>
  <path id="Path_1932" data-name="Path 1932" d="M804.829,1196.03a2.269,2.269,0,0,1-2.466,2.241c-.311.01-.625,0-.936,0v-.007c-.4,0-.8.025-1.2,0a2.235,2.235,0,0,1-2.212-2.216,2.269,2.269,0,0,1,2.137-2.312,15.963,15.963,0,0,1,2.269-.018A2.288,2.288,0,0,1,804.829,1196.03Z" transform="translate(-775.119 -1184.568)" fill="url(#linear-gradient)"/>
  <path id="Path_1933" data-name="Path 1933" d="M836.867,1196.116a2.2,2.2,0,0,1-2.241,2.173c-.4.029-.8,0-1.2,0-2.32.011-3.349-.693-3.342-2.277.007-1.565,1.069-2.283,3.374-2.283a11.724,11.724,0,0,1,1.333.029A2.257,2.257,0,0,1,836.867,1196.116Z" transform="translate(-795.728 -1184.597)" fill="url(#linear-gradient)"/>
</svg>
