<svg id="Group_2823" data-name="Group 2823" xmlns="http://www.w3.org/2000/svg" xmlns:xlink="http://www.w3.org/1999/xlink" width="147.598" height="106.757" viewBox="0 0 147.598 106.757">
  <defs>
    <linearGradient id="linear-gradient" x1="0.5" x2="0.5" y2="1" gradientUnits="objectBoundingBox">
      <stop offset="0" stop-color="#f5da99"/>
      <stop offset="1" stop-color="#d9a529"/>
    </linearGradient>
  </defs>
  <path id="Path_1912" data-name="Path 1912" d="M374.3,1249.642q-7.675-19.921-15.435-39.817c-1.153-2.968-3.126-3.654-5.966-2.173-3.824,2-7.672,3.976-11.411,6.131a8.391,8.391,0,0,1-7.617.613c-2.689-1.025-5.384-2.027-8.073-3.053a26.179,26.179,0,0,0-22.815,1.384,4.066,4.066,0,0,1-2.677.049c-2.622-.686-5.159-1.76-7.806-2.258-5.135-.965-10.088.522-15.022,1.694-3.751.892-7.3.886-10.761-1.123-1.888-1.1-3.982-1.845-5.966-2.792-3.46-1.657-6.9-3.35-10.349-5.026h-2.731a26.709,26.709,0,0,0-2.677,3.8c-5.6,11.762-11.113,23.562-16.655,35.355-2.046,4.358-1.681,5.45,2.792,7.508,4.953,2.282,9.984,4.382,14.9,6.737a5,5,0,0,1,2.379,2.683c1.22,3.9,2.2,7.891-.9,11.5a2.766,2.766,0,0,0-.37.826,11.168,11.168,0,0,0,7.49,14.925c.789.219,1.584.394,2.337.583,1.068,9.444,6.07,13.152,15.18,11.435a2.262,2.262,0,0,1,1.742.831c2.907,3.66,6.622,5.226,11.223,4.394A2.152,2.152,0,0,1,287.8,1305a10.4,10.4,0,0,0,7.806,4.91c4.1.577,7.4-.947,10.179-3.727,11.72,5.366,17.42,2.635,19.878-9.444,4.971-1.329,8.267-4.309,9.062-9.572.212-1.408,1.117-1.336,2.106-1.475a10.5,10.5,0,0,0,8.6-6.27,32.937,32.937,0,0,0,1.469-5.462c6.4-1.8,8.928-4.759,9.657-11.169a2.588,2.588,0,0,1,1.372-1.675c4.637-2.058,9.329-3.988,13.984-6.009C374.576,1253.945,375.323,1252.307,374.3,1249.642ZM255.771,1279.28a3.885,3.885,0,0,1-1.7-5.244c1.542-3.107,3.126-6.215,4.953-9.159.668-1.068,2.088-1.669,3.168-2.482,3.132.461,5.056,3.241,3.836,5.869-1.529,3.278-3.29,6.458-5.11,9.59A3.789,3.789,0,0,1,255.771,1279.28Zm22.718-1.942c-2.155,4.321-4.425,8.588-6.871,12.746-.595,1.013-2.07,1.518-2.64,1.906-3.472-.049-5.469-2.95-4.224-5.517,2.106-4.34,4.443-8.577,6.81-12.782a3.921,3.921,0,0,1,6.925,3.648Zm13.656,6.676c-2,3.8-3.921,7.653-6.112,11.344a3.639,3.639,0,0,1-5.068.856c-1.706-1.135-2.489-2.828-1.584-4.7,1.772-3.666,3.7-7.259,5.748-10.779a3.551,3.551,0,0,1,4.358-1.536,3.859,3.859,0,0,1,2.816,3.7A3.412,3.412,0,0,1,292.145,1284.014Zm12.977,8.291c-1.427,2.756-2.853,5.517-4.382,8.212a3.962,3.962,0,1,1-7.035-3.635q2.194-4.361,4.607-8.613a3.756,3.756,0,0,1,4.437-1.948c1.936.486,2.835,1.894,3.017,4.091A11.429,11.429,0,0,1,305.122,1292.3Zm10.9,8.764c-2.337,1.615-4.364-.085-6.476-1.372,1.2-2.422,2.288-4.643,3.454-7.01,2.106,1.08,4.837,1.742,4.959,4.7A5.028,5.028,0,0,1,316.023,1301.069Zm32.691-36.357a3.967,3.967,0,0,1-5.566,1.311c-4.449-2.44-8.843-4.971-13.268-7.466-1.712-.971-3.4-1.984-5.153-2.889-2.088-1.086-4.091-.558-5.129,1.256a3.528,3.528,0,0,0,1.56,5.032c5.044,2.932,10.173,5.712,15.186,8.691,1.1.65,2.422,1.766,2.622,2.853a5.5,5.5,0,0,1-1.165,4.031c-1.25,1.493-3.138,1.238-4.8.309q-9.132-5.089-18.251-10.2c-.461-.261-.923-.522-1.4-.764-2.355-1.226-4.437-.783-5.493,1.165-1.02,1.881-.346,3.83,1.863,5.129,2.482,1.457,5.013,2.834,7.52,4.249,2.64,1.487,5.3,2.938,7.915,4.473,2.373,1.39,3.083,3.708,1.863,5.742-1.159,1.93-3.46,2.5-5.76,1.16q-6.555-3.815-12.977-7.867a11.86,11.86,0,0,0-9.238-1.748c-2.743-5.844-7.186-8.188-13.474-7.247-2.155-4.771-5.736-7.454-11.138-7.405a1.644,1.644,0,0,1-1.147-.8c-4.364-8.376-9.341-10.191-17.614-6.227a12.321,12.321,0,0,1-.479-1.141,9.752,9.752,0,0,0-6.033-6.343c-4.473-1.839-8.855-3.9-13.529-5.978,5.062-10.786,10.069-21.432,15.174-32.3,4.461,2.058,8.849,3.885,13.056,6.076,4.777,2.495,9.62,2.744,14.767,1.578,4.485-1.02,8.947-2.495,13.669-1.59.516.1,1.032.219,1.542.346.267.073.516.194.947.358a91.653,91.653,0,0,1-19.2,15.429c-5.869,3.557-6.063,5.092-1.378,10.106,5.8,6.215,12.928,7.963,20.952,5.8,4.37-1.172,8.57-2.98,12.849-4.485,1.572-.552,3.138-1.111,4.734-1.584a11.681,11.681,0,0,1,9.784,1.293c7.684,4.564,15.508,8.892,23.277,13.316.455.261.923.522,1.366.814C349.224,1260.579,349.843,1262.807,348.714,1264.712Zm5.711-10.105a2.144,2.144,0,0,1-1.615-.28c-9.766-5.627-19.459-11.387-29.292-16.9-4.055-2.276-8.54-1.972-12.825-.595-4.746,1.53-9.353,3.5-14.094,5.044a34.524,34.524,0,0,1-7.526,1.5c-3.35.309-6.191-1.069-8.819-3.636,2.294-1.584,4.51-2.9,6.482-4.516q5.881-4.816,11.538-9.911c4.449-3.988,9.038-7.618,15.2-8.534,4.067-.607,7.775.631,11.5,1.985,3.126,1.135,6.246,2.3,9.432,3.235a12.3,12.3,0,0,0,9.438-1.262l9.493-5.056c4.4,11.344,8.734,22.511,13.122,33.82C362.352,1251.256,358.407,1252.974,354.425,1254.607Z" transform="translate(-227.141 -1203.27)" fill="url(#linear-gradient)"/>
</svg>
