<svg xmlns="http://www.w3.org/2000/svg" xmlns:xlink="http://www.w3.org/1999/xlink" width="121" height="123.8" viewBox="0 0 121 123.8">
  <defs>
    <linearGradient id="linear-gradient" x1="0.5" x2="0.5" y2="1" gradientUnits="objectBoundingBox">
      <stop offset="0" stop-color="#ffed77"/>
      <stop offset="1" stop-color="#f90"/>
    </linearGradient>
  </defs>
  <g id="Group_2762" data-name="Group 2762" transform="translate(0.5 0.5)">
    <path id="Union_4" data-name="Union 4" d="M1.718,122.8a3.335,3.335,0,0,1-1.71-3.257c-.17-7.227,2.212-13.337,7.776-18.034a59.045,59.045,0,0,1,5.164-3.517A13.072,13.072,0,0,1,8.507,86.72a12.839,12.839,0,0,1,4.636-8.78,13.157,13.157,0,0,1,18.014.988c4.566,4.751,5.464,13.174-.989,19.214A22.363,22.363,0,0,1,40.8,108.073a22.371,22.371,0,0,1,10.68-9.909c-3.7-3.508-5.343-7.684-4.406-12.678a12.611,12.611,0,0,1,4.774-7.8,13.144,13.144,0,0,1,17.73,1.275c4.121,4.288,5.79,12.672-1,19.2a22.355,22.355,0,0,1,10.606,9.915A22.349,22.349,0,0,1,89.87,98.148a13.2,13.2,0,0,1-4.623-11.293A12.867,12.867,0,0,1,89.7,78.106a13.127,13.127,0,0,1,17.592.23,12.853,12.853,0,0,1,4.256,9.932,13.126,13.126,0,0,1-4.5,9.727,59.453,59.453,0,0,1,5.077,3.434c5.941,4.959,8.231,11.476,7.831,19.07a2.925,2.925,0,0,1-1.672,2.3ZM88.24,104.674a16.252,16.252,0,0,0-6.657,13.282h33.627c-.377-6.765-3.309-11.878-9.266-14.885a17.051,17.051,0,0,0-7.721-1.961A16.582,16.582,0,0,0,88.24,104.674Zm-76.849.077a16.243,16.243,0,0,0-6.558,13.206H38.462c-.381-6.768-3.31-11.885-9.269-14.885a17.1,17.1,0,0,0-7.727-1.96A16.587,16.587,0,0,0,11.391,104.75Zm39.4-.728c-4.96,3.21-7.374,7.958-7.6,13.928H76.834c-.323-6.27-2.906-11.182-8.268-14.331a15.95,15.95,0,0,0-17.772.4ZM89.986,88.028a8.39,8.39,0,1,0,8.384-8.4A8.414,8.414,0,0,0,89.986,88.028Zm-38.376,0A8.392,8.392,0,1,0,60,79.631,8.417,8.417,0,0,0,51.609,88.028Zm-38.374-.012a8.39,8.39,0,1,0,8.4-8.384h-.006A8.412,8.412,0,0,0,13.236,88.015ZM45.054,69.556q-7.914,0-15.828,0a7.2,7.2,0,0,1-7.6-7.6q-.014-14.207.016-28.416a2.008,2.008,0,0,0-.9-1.877,9.151,9.151,0,0,1-3.907-7.585c-.044-2.756-.023-5.516-.007-8.275a5.979,5.979,0,0,1,6.195-6.2q11.152-.023,22.3-.006h1.528C46.467,5.4,46.78,1.526,51.606,0H68.4c2.849,1,4.684,2.815,4.789,6,.038,1.151.007,2.3.007,3.6h1.362q11.031,0,22.064,0c4.1,0,6.548,2.456,6.554,6.565.006,2.6.029,5.2-.006,7.8a9.231,9.231,0,0,1-4.007,7.776,1.774,1.774,0,0,0-.793,1.685q.025,14.15.01,28.3c0,4.866-2.974,7.837-7.841,7.84-6.4,0-12.79.035-19.185-.042a3.57,3.57,0,0,1-2.386-.982,2.95,2.95,0,0,1-.3-2.3,2.076,2.076,0,0,1,2.229-1.465c2.8-.009,5.6-.006,8.394-.006,3.837,0,7.674.009,11.511,0,1.835-.007,2.779-.909,2.779-2.7q.019-13.973,0-27.94c0-.115-.026-.234-.045-.445H88.78c0,.72.023,1.465-.006,2.209a2.374,2.374,0,0,1-2.5,2.482q-4.677.048-9.354,0A2.391,2.391,0,0,1,74.4,35.777c-.02-.674,0-1.352,0-2.113H45.61c0,.624.006,1.251,0,1.875-.023,1.908-.9,2.823-2.769,2.832q-4.437.023-8.873,0a2.448,2.448,0,0,1-2.747-2.727c-.009-.637,0-1.27,0-1.983h-4.8V61.578c0,2.389.783,3.179,3.143,3.182H48.271c.319,0,.642-.014.959.006A2.41,2.41,0,0,1,51.6,67.149a2.366,2.366,0,0,1-2.346,2.388c-.606.023-1.212.03-1.818.03C46.639,69.567,45.846,69.556,45.054,69.556ZM79.258,33.5h4.681V28.839H79.258ZM36.1,33.485h4.691v-4.63H36.1ZM21.623,15.9c.012,2.757-.035,5.512.023,8.269a4.584,4.584,0,0,0,4.025,4.523,54.012,54.012,0,0,0,5.551.039c0-.8-.018-1.512.006-2.223A2.365,2.365,0,0,1,33.7,24q4.734-.048,9.468,0a2.351,2.351,0,0,1,2.43,2.427c.032.748.006,1.5.006,2.3H74.394c0-.8-.019-1.506,0-2.22A2.367,2.367,0,0,1,76.869,24q4.734-.048,9.468,0a2.353,2.353,0,0,1,2.436,2.424c.032.745.006,1.5.006,2.356,1.465,0,2.811,0,4.161,0,3.508,0,5.429-1.905,5.436-5.378q0-3.415,0-6.829c0-1.983-.2-2.182-2.2-2.182H33.489c-3.4,0-6.792.014-10.187-.009h-.026C22.229,14.383,21.62,14.754,21.623,15.9ZM53.01,4.8a1.255,1.255,0,0,0-1.4,1.41c-.007,1.072,0,2.145,0,3.306H68.393c0-1.185.019-2.3-.007-3.408A1.222,1.222,0,0,0,67.008,4.8l-7,0Zm6.941,64.747a2.393,2.393,0,1,1,.05,0Z" transform="translate(0 0)" stroke="rgba(0,0,0,0)" stroke-miterlimit="10" stroke-width="1" fill="url(#linear-gradient)"/>
  </g>
</svg>
