<svg xmlns="http://www.w3.org/2000/svg" xmlns:xlink="http://www.w3.org/1999/xlink" width="145.824" height="146" viewBox="0 0 145.824 146">
  <defs>
    <linearGradient id="linear-gradient" x1="0.5" x2="0.5" y2="1" gradientUnits="objectBoundingBox">
      <stop offset="0" stop-color="#ffed77"/>
      <stop offset="1" stop-color="#f90"/>
    </linearGradient>
    <filter id="Path_1924" x="28.983" y="98.013" width="27.832" height="27.824" filterUnits="userSpaceOnUse">
      <feOffset dy="9" input="SourceAlpha"/>
      <feGaussianBlur stdDeviation="3" result="blur"/>
      <feFlood flood-opacity="0.161"/>
      <feComposite operator="in" in2="blur"/>
      <feComposite in="SourceGraphic"/>
    </filter>
    <filter id="Path_1925" x="89.73" y="37.252" width="27.837" height="27.841" filterUnits="userSpaceOnUse">
      <feOffset dy="9" input="SourceAlpha"/>
      <feGaussianBlur stdDeviation="3" result="blur-2"/>
      <feFlood flood-opacity="0.161"/>
      <feComposite operator="in" in2="blur-2"/>
      <feComposite in="SourceGraphic"/>
    </filter>
  </defs>
  <g id="Group_2778" data-name="Group 2778" transform="translate(0 0)">
    <path id="Path_1920" data-name="Path 1920" d="M626.431,1565.841a4.736,4.736,0,0,0,.856-5.761,4.435,4.435,0,0,0-4.991-2.346,7.3,7.3,0,0,0-3.1,1.8c-3.236,3.09-6.361,6.305-9.438,9.387-3.643-3.643-7.178-7.183-10.786-10.8.261-.278.608-.672.976-1.04,2.949-2.954,5.924-5.881,8.839-8.865a4.8,4.8,0,0,0,.877-5.761,4.431,4.431,0,0,0-4.982-2.367,7.3,7.3,0,0,0-3.108,1.793c-3.245,3.095-6.369,6.309-9.5,9.443a1.7,1.7,0,0,1-.415-.18c-2.127-2.106-4.233-4.233-6.378-6.323-2.35-2.286-5.047-2.3-7.367.009-5.766,5.736-11.634,11.373-17.211,17.284-8.111,8.59-10.723,18.826-7.748,30.237.976,3.758,2.966,7.251,4.49,10.868.214.039.428.077.642.111a11.214,11.214,0,0,0-1.421,1.054c-10.791,10.77-3.055,3.192-13.807,14a48.12,48.12,0,0,0-3.1,3.784v2.568a7.264,7.264,0,0,0,3.531,3.531h2.568a48.9,48.9,0,0,0,3.788-3.094c10.8-10.752,3.05-3.2,13.828-13.975.441-.441.9-.856,1.323-1.259.291.163.432.236.565.321,13.56,9.053,29.886,7.444,41.439-4.088q7.943-7.942,15.885-15.889c2.765-2.774,2.769-5.287.013-8.056-2.067-2.08-4.156-4.139-6.493-6.468a17.173,17.173,0,0,0,1.507-1.177C620.627,1571.684,623.559,1568.794,626.431,1565.841Zm-13.873,20.953c-4.46,4.464-8.835,9.015-13.406,13.359a22.221,22.221,0,0,1-36.97-10.277c-1.858-6.986-.779-13.693,3.9-19.193,4.764-5.6,10.2-10.624,15.375-15.941l31.5,31.483A3.407,3.407,0,0,1,612.558,1586.794Z" transform="translate(-539.75 -1482.27)" fill="url(#linear-gradient)"/>
    <path id="Path_1921" data-name="Path 1921" d="M792.57,1405.18H790c-1.267,1.027-2.624,1.964-3.784,3.1-4.43,4.344-8.792,8.757-13.184,13.145-.407.4-.835.783-1.263,1.186-.329-.2-.556-.33-.775-.475-13.415-8.839-29.706-7.221-41.075,4.1q-8.135,8.1-16.227,16.231c-2.461,2.466-2.483,5.154-.047,7.594q18.774,18.787,37.561,37.561c2.44,2.436,5.132,2.419,7.6-.034,5.53-5.518,11.078-11.013,16.565-16.574a31.86,31.86,0,0,0,3.955-40.476c-.227-.342-.42-.71-.651-1.112,4.781-4.781,9.532-9.486,14.215-14.25,1.177-1.2,2.149-2.6,3.21-3.9v-2.568A7.245,7.245,0,0,0,792.57,1405.18Zm-21.989,56.57c-4.815,5.625-10.252,10.714-15.324,15.94-10.586-10.585-21.008-21.008-31.517-31.525a2.957,2.957,0,0,1,.4-.523c4.34-4.353,8.616-8.779,13.055-13.025,6.365-6.087,13.942-8.043,22.335-5.415,8.33,2.607,13.453,8.475,15.191,17.045C776.022,1450.656,774.819,1456.8,770.581,1461.75Z" transform="translate(-650.278 -1405.18)" fill="url(#linear-gradient)"/>
    <g transform="matrix(1, 0, 0, 1, 0, 0)" filter="url(#Path_1924)">
      <path id="Path_1924-2" data-name="Path 1924" d="M666.592,1639.044a4.916,4.916,0,1,1-4.957-4.884A4.984,4.984,0,0,1,666.592,1639.044Z" transform="translate(-618.78 -1536.15)" fill="url(#linear-gradient)"/>
    </g>
    <g transform="matrix(1, 0, 0, 1, 0, 0)" filter="url(#Path_1925)">
      <path id="Path_1925-2" data-name="Path 1925" d="M808.516,1497.068a4.919,4.919,0,1,1-4.97-4.858A5,5,0,0,1,808.516,1497.068Z" transform="translate(-699.95 -1454.96)" fill="url(#linear-gradient)"/>
    </g>
  </g>
</svg>
