<svg xmlns="http://www.w3.org/2000/svg" xmlns:xlink="http://www.w3.org/1999/xlink" width="120.932" height="113.344" viewBox="0 0 120.932 113.344">
  <defs>
    <linearGradient id="linear-gradient" x1="0.5" x2="0.5" y2="1" gradientUnits="objectBoundingBox">
      <stop offset="0" stop-color="#17b2f8"/>
      <stop offset="1" stop-color="#0386fa"/>
    </linearGradient>
  </defs>
  <g id="Group_2763" data-name="Group 2763" transform="translate(0.446 0.5)">
    <path id="Union_5" data-name="Union 5" d="M.928,106.493c-1.227-2.663-.959-5.55-.739-8.371a9.376,9.376,0,0,1,7.355-8.7,13.952,13.952,0,0,1,3.341-.322q29.554-.03,59.109-.014h1.716V86.608q0-6,0-12c0-2.407.5-2.9,2.947-2.9q3.623,0,7.248,0h1.387V70.24q0-6.5,0-13c0-2.411.561-2.98,2.915-2.98q7.744,0,15.494,0c2.365,0,2.915.557,2.917,2.973q.009,6.5,0,13V71.7c1.2,0,2.231-.01,3.261,0,1.884.021,2.541.672,2.547,2.577.012,4.668,0,9.335,0,14v.6a25.829,25.829,0,0,1,4.063,1.2,8.935,8.935,0,0,1,5.47,8.155,26.347,26.347,0,0,1-.543,7.53c-1.052,3.831-4,5.893-7.916,6.476a13.667,13.667,0,0,1-2,.08H79.857q-34.6,0-69.191.017h-.015C6.179,112.344,2.82,110.6.928,106.493ZM9.961,93.014c-2.981.012-5.358,1.711-5.772,4.5a21.592,21.592,0,0,0,.01,6.452c.465,2.956,2.936,4.528,6.416,4.528q49.486,0,98.974,0a10.13,10.13,0,0,0,1.122-.039,5.819,5.819,0,0,0,5.5-5.994c.016-.876-.056-1.755.014-2.626.326-4.051-2.452-6.917-6.793-6.884C92.981,93.075,76.526,93,60.072,93Q44.7,93,29.331,93,23.837,93,18.344,93,14.153,93,9.961,93.014ZM93.011,89h13.4V75.645h-13.4Zm-17.4-.006H89.045V75.627H75.611ZM87.24,71.61h13.4V58.2H87.24ZM60.082,106.534a5.884,5.884,0,0,1-5.808-5.809,5.812,5.812,0,0,1,11.624.011,5.881,5.881,0,0,1-5.81,5.8ZM58.2,100.707a1.89,1.89,0,0,0,3.781.04,1.917,1.917,0,0,0-1.871-1.94h-.021A1.92,1.92,0,0,0,58.2,100.707Zm-17.513,5.825a5.81,5.81,0,0,1-5.732-5.849,5.774,5.774,0,1,1,5.777,5.849Zm-.008-7.719a1.98,1.98,0,0,0-1.852,1.971,1.884,1.884,0,0,0,1.965,1.827,1.935,1.935,0,0,0,1.868-1.941,2.019,2.019,0,0,0-1.928-1.857Zm-25.092,1.951a5.8,5.8,0,0,1,11.6-.068,5.875,5.875,0,0,1-5.775,5.836h-.034A5.84,5.84,0,0,1,15.584,100.764Zm5.735-1.956a1.949,1.949,0,0,0-1.847,1.972,1.884,1.884,0,0,0,1.956,1.831,1.842,1.842,0,0,0,1.833-1.94,1.927,1.927,0,0,0-1.882-1.864Zm77.451,7.724a5.871,5.871,0,0,1-5.781-5.828,5.8,5.8,0,1,1,5.807,5.828Zm-.02-7.721a1.906,1.906,0,0,0-1.831,1.965,1.836,1.836,0,0,0,1.931,1.838,1.91,1.91,0,0,0,1.859-1.937A1.97,1.97,0,0,0,98.8,98.811Zm-25.074,1.938a5.774,5.774,0,0,1,11.548-.037,5.817,5.817,0,0,1-5.764,5.82h-.018A5.779,5.779,0,0,1,73.677,100.749Zm3.842-.042a1.928,1.928,0,0,0,1.9,1.9,1.874,1.874,0,0,0,1.926-1.864,1.972,1.972,0,0,0-1.888-1.936h-.016A2,2,0,0,0,77.519,100.707ZM35.53,81.336c-1.9-.008-2.54-.659-2.548-2.564-.012-3-.043-6,.02-9a1.317,1.317,0,0,0-1.082-1.491,47.562,47.562,0,0,1-4.595-1.918,1.158,1.158,0,0,0-1.6.271c-2.12,2.18-4.282,4.321-6.44,6.465-1.361,1.353-2.273,1.36-3.617.026q-3.725-3.7-7.422-7.43c-1.206-1.217-1.206-2.214.006-3.44,2.166-2.194,4.34-4.382,6.547-6.535a1.153,1.153,0,0,0,.288-1.59,42.184,42.184,0,0,1-1.875-4.48,1.468,1.468,0,0,0-1.664-1.209c-2.914.073-5.83.032-8.748.023C.759,48.454.09,47.8.081,45.777q-.023-5.128,0-10.256C.1,33.6.743,32.975,2.64,32.969c3.043-.01,6.083-.027,9.125.013a1.181,1.181,0,0,0,1.335-.946c.69-1.911,1.491-3.779,2.289-5.764-2.26-2.257-4.591-4.579-6.912-6.906-1.512-1.514-1.517-2.385-.018-3.892q3.57-3.59,7.156-7.164c1.377-1.37,2.334-1.364,3.727.02,2.1,2.084,4.214,4.154,6.26,6.293a1.4,1.4,0,0,0,1.928.3c1.755-.843,3.569-1.562,5.451-2.37,0-3.214-.006-6.5,0-9.793,0-2.108.656-2.758,2.775-2.76q5-.009,10,0c2.059,0,2.711.651,2.715,2.675.008,3.291,0,6.583,0,9.854,2.092.913,4.124,1.838,6.194,2.659.264.1.817-.248,1.1-.528,2.144-2.1,4.249-4.236,6.377-6.351,1.407-1.4,2.309-1.4,3.711,0q3.632,3.617,7.242,7.255c1.387,1.4,1.379,2.306-.02,3.709-2.351,2.36-4.714,4.707-6.986,6.975.838,2.128,1.594,4.15,2.456,6.127a1.5,1.5,0,0,0,1.165.561c2.025.032,4.053.03,6.08.028,1.014,0,2.029,0,3.042,0,1.881.006,2.55.662,2.562,2.561q.029,5.192,0,10.38c-.013,1.849-.734,2.539-2.617,2.549-3,.015-6,.029-9-.012a1.25,1.25,0,0,0-1.439.98,44,44,0,0,1-1.861,4.487,1.379,1.379,0,0,0,.295,1.913c2.113,2.009,4.146,4.1,6.2,6.173,1.543,1.551,1.534,2.4-.038,3.978q-3.533,3.541-7.076,7.07c-1.412,1.405-2.322,1.412-3.717.024-2.361-2.351-4.706-4.715-7-7.01-2.1.838-4.118,1.6-6.089,2.468a1.481,1.481,0,0,0-.565,1.147c-.049,3-.024,6-.029,9,0,2.036-.585,2.651-2.564,2.659q-2.594.01-5.186.01T35.53,81.336ZM27.5,62.036c2.454,1.107,4.937,2.153,7.447,3.12,1.448.558,1.894.972,1.926,2.51.027,1.291.008,2.584.008,3.875v5.9H44.62V76.03c0-2.836.01-5.669,0-8.5a2.282,2.282,0,0,1,1.793-2.348c2.56-.953,5.086-2.012,7.565-3.156a2.351,2.351,0,0,1,3.036.431c1.635,1.665,3.318,3.283,4.933,4.967a26.42,26.42,0,0,1,1.686,2.125c2.111-2.113,3.872-3.876,5.709-5.719q-3.355-3.352-6.714-6.71c-1.2-1.2-1.175-1.8-.471-3.325,1.076-2.334,2.078-4.706,2.966-7.115.625-1.7,1.007-2.116,2.864-2.122,2.708-.008,5.415,0,8.124,0H77.4V36.8c-3.161,0-6.236,0-9.31,0-2.1,0-2.354-.331-3.06-2.338a65.867,65.867,0,0,0-2.77-6.655c-.852-1.779-.882-2.31.541-3.732,2.2-2.207,4.413-4.413,6.49-6.487-1.839-1.866-3.61-3.66-5.446-5.519-2.207,2.209-4.462,4.484-6.735,6.742-1.177,1.171-1.754,1.148-3.216.489-2.454-1.108-4.949-2.129-7.466-3.076a2.286,2.286,0,0,1-1.813-2.344c.021-1.5,0-3,0-4.5,0-1.781,0-3.563,0-5.385H36.882V5.4c0,2.709.01,5.42-.006,8.13-.009,1.753-.46,2.152-2.106,2.75-2.336.847-4.65,1.779-6.892,2.851-1.851.885-2.267.941-3.72-.509-2.206-2.2-4.406-4.411-6.537-6.547l-5.485,5.5c2.188,2.18,4.462,4.436,6.724,6.7,1.135,1.14,1.141,1.834.5,3.231-1.1,2.413-2.133,4.858-3.071,7.338-.592,1.562-.91,1.933-2.588,1.938-2.708.011-5.416,0-8.124,0H4.045v7.747H13.1c2.344,0,2.621.333,3.357,2.484a55.027,55.027,0,0,0,2.675,6.424c.943,1.927.984,2.386-.555,3.927-2.17,2.174-4.343,4.344-6.362,6.365,1.865,1.867,3.644,3.646,5.491,5.49,2.152-2.161,4.4-4.44,6.676-6.7a2.39,2.39,0,0,1,1.67-.917A3.679,3.679,0,0,1,27.5,62.036ZM40.6,62a21.195,21.195,0,1,1,.19,0Zm-17.3-21.336A17.43,17.43,0,1,0,40.768,23.258H40.72A17.518,17.518,0,0,0,23.305,40.664Zm1.935-.007A15.486,15.486,0,1,1,40.734,56.2,15.5,15.5,0,0,1,25.241,40.657Zm3.924-.171a11.576,11.576,0,1,0,11.684-11.38h-.11A11.524,11.524,0,0,0,29.164,40.487Z" transform="translate(0 0)" stroke="rgba(0,0,0,0)" stroke-miterlimit="10" stroke-width="1" fill="url(#linear-gradient)"/>
  </g>
</svg>
