<svg id="Group_2822" data-name="Group 2822" xmlns="http://www.w3.org/2000/svg" width="115.758" height="118.701" viewBox="0 0 115.758 118.701">
  <path id="Path_1908" data-name="Path 1908" d="M-47.61,204.465c0-1.788-.552-2.34-2.309-2.34q-45.523,0-91.053,0c-1.76,0-2.312.555-2.318,2.325-.009,2.507,0,5.013,0,7.708-2.067,0-3.981,0-5.9,0-2.4,0-2.839.43-2.839,2.776v46.7c0,2.453.433,2.892,2.849,2.892h89.992c.314,0,.627.009.941-.006a1.671,1.671,0,0,0,1.832-1.832c.044-1.33.016-2.663.016-4,0-1.358,0-2.714,0-4.182,2.256,0,4.329.016,6.4,0,1.851-.016,2.394-.552,2.394-2.4Q-47.6,228.289-47.61,204.465Zm-100.794,11.4h9.355c-.125,4.188-4.913,9.007-9.355,9.28Zm.116,44.971v-9.192c3.793-.511,9.1,4.725,9.233,9.192Zm87.809,0h-9.27c.125-4.176,4.95-9.041,9.27-9.277Zm.053-13.64a4.271,4.271,0,0,1-.066.514c-6.315,1.233-10.6,4.681-12.533,10.811-.75,2.378-.709,2.391-3.275,2.391q-28.813,0-57.626.022c-1.042,0-1.55-.166-1.785-1.34a15.2,15.2,0,0,0-12.753-11.865V229c.6-.135,1.242-.254,1.87-.427,6.1-1.694,9.757-5.681,11.005-11.858.154-.762.414-.932,1.123-.932q29.99.024,59.982.006c.618,0,.938.082,1.1.825,1.434,6.585,5.443,10.663,12.04,12.144.6.132.947.285.944,1.032C-60.435,235.592-60.422,241.4-60.425,247.2Zm-9.393-31.315h9.327v9.28C-64.72,224.932-68.955,220.719-69.818,215.881Zm18.29,34.675h-5.023v-1.393q0-17.058,0-34.117c0-2.46-.427-2.889-2.874-2.889H-139.51V205.83h87.981Z" transform="translate(157.892 -202.122)" fill="#4ab0ee"/>
  <path id="Path_1909" data-name="Path 1909" d="M-57.538,426c-1.9-1.751-5.346-2.516-8.765-.147-4.376,3.034-8.947,5.788-13.352,8.787-6.855,4.668-13.876,8.957-21.863,11.476-3.015.954-5.907,2.293-8.878,3.391a3.134,3.134,0,0,1-3.332-.467c-1.085-.957-2.13-1.964-3.156-2.99a2.169,2.169,0,0,1-.618-2.563,2.076,2.076,0,0,1,2.227-1.148c5.763.028,11.529.006,17.292.019a6.778,6.778,0,0,0,5.528-2.381,7.612,7.612,0,0,0,1.183-8.373,6.811,6.811,0,0,0-6.826-4.26q-9.12.047-18.233-.019a2.714,2.714,0,0,1-1.87-.656c-3.165-3.711-7.338-5.192-12-5.7a37.326,37.326,0,0,0-11.83.881c0-1,.006-1.863,0-2.723-.016-1.769-.574-2.362-2.3-2.362q-12.056-.009-24.115,0c-1.669,0-2.259.6-2.259,2.278q-.009,21.35,0,42.7c0,1.744.568,2.3,2.34,2.3q5.765.01,11.529,0c4.154,0,8.31.006,12.467-.006,1.537,0,2.111-.6,2.133-2.143.009-.656,0-1.308,0-2.03,2.089-.11,4.037-.257,5.986-.289a7.129,7.129,0,0,1,2.4.373c7.062,2.447,14.1,4.966,21.166,7.407A12.331,12.331,0,0,0-101.63,466.1q21.6-13.774,43.1-27.72a8.463,8.463,0,0,0,2.616-2.93A7.709,7.709,0,0,0-57.538,426Zm-88.43,34.167h-20.991V420.3h20.991Zm85.418-24.881q-21.284,13.623-42.565,27.249a9.894,9.894,0,0,1-9.2.966c-6.993-2.535-13.985-5.067-21.006-7.513a10.6,10.6,0,0,0-3.445-.392c-1.832,0-3.667.154-5.663.248V454.6c0-9.333.016-18.666-.028-28,0-1,.3-1.343,1.249-1.522,4.5-.838,9-1.264,13.521-.116a11.285,11.285,0,0,1,6.133,3.7,5.932,5.932,0,0,0,4.853,2.193c6.158-.016,12.313.069,18.468-.044a3.769,3.769,0,0,1,3.808,3.865,3.613,3.613,0,0,1-3.827,3.818c-5.568.013-11.137,0-16.705.006-2.9,0-4.6.994-5.515,3.322a5.634,5.634,0,0,0,1.387,6.566c.985.957,1.945,1.939,2.961,2.858a6.563,6.563,0,0,0,6.98,1.547c10.3-3.834,20.74-7.338,29.787-13.938,5.088-3.714,10.594-6.855,15.774-10.45a3.221,3.221,0,0,1,5.007,2.306A4.45,4.45,0,0,1-60.549,435.288Z" transform="translate(170.715 -349.428)" fill="#4ab0ee"/>
  <path id="Path_1910" data-name="Path 1910" d="M-23.7,261.087c-6.092-7.322-15.921-7.247-21.941.144-6.3,7.739-6.117,20.454.4,27.993,5.75,6.641,15,6.848,20.978.42,3.827-4.113,5.311-9.129,5.424-14.509A21.648,21.648,0,0,0-23.7,261.087Zm1.161,15.121a17.534,17.534,0,0,1-4.028,10.629c-4.508,5.336-11.335,5.393-15.861.078a18.007,18.007,0,0,1-4.078-13.584,16.211,16.211,0,0,1,4.533-10.572c4.58-4.608,11.162-4.332,15.413.59a16.625,16.625,0,0,1,3.6,7.47c.056.263.107.53.154.8s.088.54.122.816c.056.411.1.828.132,1.255s.053.853.063,1.289c0,.138,0,.276-.009.411C-22.511,275.666-22.523,275.935-22.539,276.208Z" transform="translate(88.041 -238.852)" fill="#4ab0ee"/>
  <path id="Path_1911" data-name="Path 1911" d="M-14.163,292.086V287.1l3.7,1.437c.489-.722.991-1.452,1.669-2.441l-5.55-2.07c-.047-.235-.119-.6-.2-1l-1.421.069c-.072.455-.122.794-.169,1.107-3.426.6-5.383,2.174-5.656,4.646-.461,4.185,2.588,5.214,5.681,6.083v5.227c-1.575-.847-2.961-1.591-4.43-2.378l-1.672,2a12.457,12.457,0,0,0,6.3,2.971c.044.627.082,1.161.116,1.691h1.543c.031-.587.056-1.089.082-1.575,4.116-1.126,5.76-2.582,5.8-5.27C-8.316,293.743-11.249,292.908-14.163,292.086Zm-1.738-.646c-1.512-.119-2.441-.891-2.507-2.067-.066-1.208.791-1.98,2.507-2.218Zm1.729,8.5v-4.505c1.66.185,2.7,1.082,2.707,2.328C-11.459,298.922-12.391,299.7-14.173,299.936Z" transform="translate(68.798 -257.641)" fill="#4ab0ee"/>
</svg>
