<svg id="Group_2776" data-name="Group 2776" xmlns="http://www.w3.org/2000/svg" xmlns:xlink="http://www.w3.org/1999/xlink" width="120" height="120" viewBox="0 0 120 120">
  <defs>
    <linearGradient id="linear-gradient" x1="0.5" x2="0.5" y2="1" gradientUnits="objectBoundingBox">
      <stop offset="0" stop-color="#ebc0a1"/>
      <stop offset="1" stop-color="#e47322"/>
    </linearGradient>
  </defs>
  <path id="Path_1913" data-name="Path 1913" d="M178.359,1080.075c-1.339-1.739-3.38-2.2-5.455-2.514-.648-.1-1.557-.17-1.851-.594a13.466,13.466,0,0,1-1.342-3.087c-.064-.179.2-.5.354-.724.582-.872,1.227-1.706,1.763-2.6a6.892,6.892,0,0,0-.636-8.121,40.99,40.99,0,0,0-4.1-4.107,6.918,6.918,0,0,0-8.121-.651,5.987,5.987,0,0,0-1.209.794,3.207,3.207,0,0,1-4.286.527,2.374,2.374,0,0,1-1.484-1.905,16.6,16.6,0,0,0-.727-3.293c-.9-2.535-2.941-3.817-5.395-4.568h-7.03a1.7,1.7,0,0,1-.382.239,7.054,7.054,0,0,0-5.255,5.734c-.17.83-.257,1.678-.466,2.5a1.6,1.6,0,0,1-.618.93c-1.739.987-3.489,1.672-5.128-.236a3.883,3.883,0,0,0-1-.673,7.017,7.017,0,0,0-8.427.779c-.966.851-1.857,1.793-2.772,2.708-3.368,3.368-3.708,6.737-.909,10.583.945,1.3,1.421,2.372.594,3.993a2.628,2.628,0,0,1-2.351,1.787,11.647,11.647,0,0,0-1.672.276,7.04,7.04,0,0,0-5.816,6.912c-.055,1.654-.027,3.311.018,4.965a6.8,6.8,0,0,0,1.993,4.543c1.578,1.693,3.674,2.124,5.8,2.378a2.276,2.276,0,0,1,1.914,1.484c.86,1.591.83,2.911-.473,4.211a6.221,6.221,0,0,0-.93,1.411,6.9,6.9,0,0,0,.766,8.015,47.327,47.327,0,0,0,4.113,4.1,6.652,6.652,0,0,0,5.416,1.533c2-.227,3.474-1.442,5.013-2.532a1.791,1.791,0,0,1,1.76-.258c1.951.56,3.162,1.581,3.056,3.768a3.845,3.845,0,0,0,.218,1.066,7,7,0,0,0,6.606,5.425c1.693.07,3.393.07,5.086,0a6.892,6.892,0,0,0,6.531-5.337c.264-1.015.379-2.063.633-3.081a1.531,1.531,0,0,1,.594-.915c1.742-1,3.492-1.681,5.137.233a4.245,4.245,0,0,0,1.212.791,6.966,6.966,0,0,0,8.115-.83c1.06-.93,2.036-1.96,3.032-2.959,3.138-3.159,3.541-6.664.845-10.2-1.251-1.639-1.478-3-.445-4.738a2.016,2.016,0,0,1,1.5-1.151,21.143,21.143,0,0,0,4.613-1.318c1.942-.885,2.8-2.781,3.517-4.686v-7.028A24.141,24.141,0,0,0,178.359,1080.075Zm-4.371,8.745a1.2,1.2,0,0,1-1.172,1.385c-1.4.212-2.778.5-4.174.712a3.689,3.689,0,0,0-3.15,2.617c-.657,1.814-1.408,3.6-2.22,5.352a3.555,3.555,0,0,0,.318,3.865c.848,1.178,1.645,2.4,2.508,3.562a1.257,1.257,0,0,1-.167,1.909c-.821.775-1.621,1.578-2.4,2.4a1.217,1.217,0,0,1-1.814.146c-1.181-.848-2.393-1.651-3.568-2.508a3.605,3.605,0,0,0-3.971-.33c-1.751.815-3.547,1.536-5.349,2.22a3.544,3.544,0,0,0-2.5,2.965c-.191,1.276-.463,2.538-.682,3.811-.282,1.635-.324,1.678-2.029,1.684h-1.212c-3.214-.027-2.817.351-3.365-2.823a17.952,17.952,0,0,1-.351-1.9c-.139-2.19-1.318-3.38-3.39-4.008a33.558,33.558,0,0,1-4.668-1.966,3.521,3.521,0,0,0-3.865.321c-1.148.821-2.332,1.6-3.459,2.444a1.354,1.354,0,0,1-2.1-.2c-.73-.806-1.515-1.566-2.305-2.317a1.218,1.218,0,0,1-.151-1.815c.845-1.181,1.663-2.384,2.511-3.562a3.553,3.553,0,0,0,.37-3.862c-.824-1.79-1.578-3.617-2.266-5.461a3.651,3.651,0,0,0-3.09-2.533c-1.354-.209-2.693-.524-4.053-.694-1.03-.127-1.369-.651-1.324-1.624a25.212,25.212,0,0,0,0-3.026c-.082-1.154.47-1.569,1.527-1.705,1.357-.176,2.7-.473,4.053-.7a3.424,3.424,0,0,0,2.811-2.344c.733-1.914,1.515-3.817,2.369-5.679a3.435,3.435,0,0,0-.318-3.65c-.827-1.193-1.642-2.4-2.5-3.568a1.316,1.316,0,0,1,.127-2.014c.827-.766,1.618-1.578,2.4-2.393a1.217,1.217,0,0,1,1.814-.146c1.142.833,2.326,1.605,3.459,2.448a3.633,3.633,0,0,0,4.071.379c1.745-.824,3.544-1.539,5.349-2.214a3.638,3.638,0,0,0,2.538-3.084c.206-1.354.509-2.7.694-4.053.127-.927.539-1.366,1.5-1.33,1.09.042,2.181.048,3.271,0a1.321,1.321,0,0,1,1.536,1.311c.218,1.393.509,2.777.715,4.171a3.526,3.526,0,0,0,2.475,2.984c1.845.693,3.674,1.436,5.461,2.263a3.56,3.56,0,0,0,3.868-.327c1.145-.827,2.332-1.593,3.459-2.447a1.346,1.346,0,0,1,2.093.209c.73.809,1.515,1.569,2.308,2.317a1.207,1.207,0,0,1,.139,1.811c-.83,1.145-1.6,2.326-2.441,3.462a3.665,3.665,0,0,0-.379,4.077c.821,1.748,1.542,3.544,2.22,5.352a3.52,3.52,0,0,0,2.965,2.493c1.354.2,2.7.5,4.053.7,1,.143,1.524.567,1.457,1.657S173.963,1087.729,173.988,1088.82Z" transform="translate(-60.285 -1049.23)" fill="url(#linear-gradient)"/>
  <path id="Path_1914" data-name="Path 1914" d="M32.491,1215.067c-1.293.3-2.632.424-3.917.754a2.153,2.153,0,0,0-1.16.96c-.385.651-.469,1.49-.894,2.105-1.148,1.666-.772,3,.46,4.471a9.66,9.66,0,0,1,2.7,6.073,7.909,7.909,0,0,1-2.057,5.776c-1.487,1.59-3,3.172-4.631,4.614a7.941,7.941,0,0,1-9.947.766c-1.163-.724-2.235-1.6-3.414-2.3a2.141,2.141,0,0,0-1.487-.151c-.73.194-1.378.749-2.108.882-2.011.364-2.611,1.617-2.869,3.5a16.737,16.737,0,0,1-1.521,5.037c-1.075,2.19-3.238,3.141-5.47,3.853h-8.481a2.935,2.935,0,0,0-.515-.258,8.113,8.113,0,0,1-6.088-6.519c-.267-1.26-.394-2.553-.718-3.8a2.048,2.048,0,0,0-.948-1.172c-1.145-.582-2.384-.979-3.544-1.533a1.393,1.393,0,0,0-1.639.146,43.341,43.341,0,0,1-3.9,2.65,7.863,7.863,0,0,1-9.136-.884,59.866,59.866,0,0,1-5.122-5.137,7.636,7.636,0,0,1-1.7-6.561,11.838,11.838,0,0,1,2.944-5.473c.984-1.206.76-2.151.373-3.55-.809-2.923-2.569-3.917-5.4-4.1a7.7,7.7,0,0,1-6.3-3.974,24.733,24.733,0,0,1-1.2-2.729v-8.482a24.117,24.117,0,0,1,1.172-2.753,7.455,7.455,0,0,1,6.04-3.959c2.99-.215,4.952-1.2,5.758-4.356.327-1.29.536-2.166-.373-3.226a20.292,20.292,0,0,1-2.105-3.1,7.836,7.836,0,0,1,.785-9.054,56.6,56.6,0,0,1,5.225-5.207,7.866,7.866,0,0,1,9.16-.754c1.351.806,2.59,1.79,3.926,2.621a1.665,1.665,0,0,0,1.272.169,39.479,39.479,0,0,0,3.9-1.635,1.708,1.708,0,0,0,.824-1.005c.312-1.291.454-2.621.742-3.92a3.187,3.187,0,0,1,3.565-2.548,3.158,3.158,0,0,1,2.575,3.547c-.309,2.236-.724,4.459-1.139,6.676a3.35,3.35,0,0,1-2.332,2.551c-2.469.975-4.922,1.984-7.355,3.047a3.458,3.458,0,0,1-3.653-.288c-1.614-1.139-3.232-2.281-4.862-3.4-1.309-.9-2.09-.83-3.214.27q-1.645,1.613-3.253,3.256c-1.133,1.154-1.206,1.893-.3,3.2,1.078,1.56,2.157,3.123,3.28,4.65A3.765,3.765,0,0,1-35.29,1189a64.99,64.99,0,0,0-2.72,6.576,3.962,3.962,0,0,1-3.423,2.956c-1.875.285-3.741.624-5.6.984a1.972,1.972,0,0,0-1.86,2.263c-.021,1.657-.024,3.314,0,4.968a2.015,2.015,0,0,0,1.917,2.229c1.863.345,3.729.7,5.6.972a3.814,3.814,0,0,1,3.3,2.771c.827,2.305,1.787,4.571,2.817,6.8a3.713,3.713,0,0,1-.282,4.083c-1.136,1.569-2.245,3.156-3.341,4.756a2.012,2.012,0,0,0,.206,3.023q1.722,1.785,3.514,3.51a1.966,1.966,0,0,0,2.92.251c1.6-1.09,3.193-2.2,4.756-3.341a3.756,3.756,0,0,1,4.183-.33c2.22,1.039,4.489,1.99,6.8,2.817a3.8,3.8,0,0,1,2.762,3.3c.267,1.836.621,3.659.951,5.483a2.069,2.069,0,0,0,2.378,2.03c1.618.018,3.232.021,4.846,0a1.97,1.97,0,0,0,2.257-1.866c.351-1.781.706-3.562.951-5.362a4.128,4.128,0,0,1,3.244-3.723,36.579,36.579,0,0,0,6.016-2.493,4.043,4.043,0,0,1,4.813.336c1.405,1.084,2.89,2.065,4.353,3.071,1.321.906,2.042.83,3.2-.309,1.124-1.105,2.242-2.214,3.338-3.344a2.036,2.036,0,0,0,.251-3.02c-1.093-1.6-2.2-3.189-3.341-4.759a3.757,3.757,0,0,1-.264-4.189,70,70,0,0,0,2.781-6.682,3.792,3.792,0,0,1,3.259-2.8c1.675-.251,3.338-.585,5.007-.875a11.372,11.372,0,0,1,1.2-.155,3.113,3.113,0,0,1,.994,6.14Z" transform="translate(55.2 -1131.407)" fill="url(#linear-gradient)"/>
  <path id="Path_1915" data-name="Path 1915" d="M73.071,1254.73a21.025,21.025,0,0,1-17.587,20.682c-1.151.185-2.323.242-3.486.36a21.087,21.087,0,0,1-.176-42.173,3.254,3.254,0,0,1,3.332,3.011,3.1,3.1,0,0,1-2.941,3.223,15.626,15.626,0,0,0-9.884,3.7A14.741,14.741,0,1,0,66.7,1255.794c.094-1.245.076-2.532,1.148-3.444a2.943,2.943,0,0,1,3.268-.57A3.06,3.06,0,0,1,73.071,1254.73Z" transform="translate(-6.141 -1180.537)" fill="url(#linear-gradient)"/>
  <path id="Path_1916" data-name="Path 1916" d="M194.987,1124.479a15.038,15.038,0,1,0,14.982,15.085A15.042,15.042,0,0,0,194.987,1124.479Zm-.055,23.769a8.736,8.736,0,0,1-.094-17.472,8.736,8.736,0,1,1,.094,17.472Z" transform="translate(-111.772 -1102.676)" fill="url(#linear-gradient)"/>
</svg>
