<svg xmlns="http://www.w3.org/2000/svg" xmlns:xlink="http://www.w3.org/1999/xlink" width="121.004" height="120.511" viewBox="0 0 121.004 120.511">
  <defs>
    <linearGradient id="linear-gradient" x1="0.5" x2="0.5" y2="1" gradientUnits="objectBoundingBox">
      <stop offset="0" stop-color="#fe9d83"/>
      <stop offset="1" stop-color="#fa667e"/>
    </linearGradient>
  </defs>
  <g id="Group_2765" data-name="Group 2765" transform="translate(0.503 0.5)">
    <path id="Union_6" data-name="Union 6" d="M73.281,118.844c-4.228-2.22-8.483-4.44-12.684-6.713a2.314,2.314,0,0,0-2.4-.026c-4.2,2.273-8.457,4.466-12.712,6.686a4.784,4.784,0,0,1-7.081-5.1c.237-1.321.449-2.668.687-4.017.4-2.378.818-4.784,1.268-7.452-2.114,1.11-3.753.238-5.392-.66-2.88-1.533-5.786-3.012-8.641-4.6a1.966,1.966,0,0,0-2.14.052c-3.092,1.665-6.21,3.225-9.3,4.89-1.744.951-3.435,1.215-5.1,0-1.612-1.163-1.956-2.8-1.612-4.73.687-3.568,1.216-7.162,1.876-10.729a1.68,1.68,0,0,0-.555-1.718c-2.669-2.536-5.258-5.126-7.9-7.69A4.249,4.249,0,0,1,.24,72.36a4.3,4.3,0,0,1,3.938-2.933c3.62-.5,7.267-1.005,10.887-1.586a2.156,2.156,0,0,0,1.348-1c1.613-3.144,3.172-6.342,4.73-9.514.211-.4.423-.819.661-1.189,1.215-1.823,1.136-3.2-.45-4.889a10.14,10.14,0,0,1-2.722-4.756,8.43,8.43,0,0,1,1.11-6.659A6.013,6.013,0,0,0,20.35,34.2a8.733,8.733,0,0,1,3.356-10.385,6.015,6.015,0,0,0,2.827-4.784,8.845,8.845,0,0,1,7.4-8.271,5.876,5.876,0,0,0,4.439-3.172A8.8,8.8,0,0,1,48.388,3.019a6.1,6.1,0,0,0,5.55-1.189A9.079,9.079,0,0,1,64.9,1.856a5.993,5.993,0,0,0,5.418,1.189A8.831,8.831,0,0,1,80.469,7.591a5.844,5.844,0,0,0,4.44,3.172,8.706,8.706,0,0,1,7.32,7.927,6.555,6.555,0,0,0,3.012,5.232A8.625,8.625,0,0,1,98.518,34.1a6.262,6.262,0,0,0,.634,5.866,8.958,8.958,0,0,1-1.189,10.782,12.008,12.008,0,0,0-1.691,2.669c-.29.529-.132.978.5,1.4a6.393,6.393,0,0,1,1.85,2.088c1.691,3.277,3.277,6.633,4.994,9.937a2.105,2.105,0,0,0,1.321,1c3.646.581,7.267,1.084,10.914,1.586a4.311,4.311,0,0,1,2.563,7.637c-2.643,2.537-5.258,5.126-7.9,7.69a1.616,1.616,0,0,0-.555,1.717c.687,3.674,1.268,7.4,1.929,11.1a4.106,4.106,0,0,1-1.56,4.281,4.058,4.058,0,0,1-4.65.317c-3.3-1.691-6.58-3.408-9.856-5.179a2.044,2.044,0,0,0-2.247.053c-3.012,1.638-6.078,3.145-9.064,4.836-2.193,1.216-4.2,1.3-6.289-.767.449,2.643.845,5,1.215,7.347.318,1.823.634,3.647.9,5.5a4.5,4.5,0,0,1-1.929,4.65,4.693,4.693,0,0,1-2.7.906A5.047,5.047,0,0,1,73.281,118.844ZM58.351,64.908q-3.171,6.343-6.316,12.738a5.054,5.054,0,0,1-4.069,3.012q-7.135,1.031-14.217,2.087a6.506,6.506,0,0,0-1.454.66,5.258,5.258,0,0,0,.819,1.4q5.034,5.035,10.174,9.963a5.173,5.173,0,0,1,1.559,4.862c-.343,2.062-.739,4.122-1.083,6.21-.5,2.881-1,5.762-1.479,8.641a1.015,1.015,0,0,0,.184.687c.238.344.74.318,1.454-.026,4.281-2.247,8.562-4.467,12.817-6.739a5.12,5.12,0,0,1,5.179-.027c1.428.767,2.854,1.507,4.282,2.247,2.88,1.533,5.734,3.065,8.64,4.571a1.433,1.433,0,0,0,1.216.106c.265-.185.238-.766.317-1.189a1.453,1.453,0,0,0-.052-.476c-.766-4.572-1.533-9.117-2.352-13.662a5.356,5.356,0,0,1,1.691-5.259c3.435-3.276,6.818-6.606,10.2-9.935a2,2,0,0,0,.582-1.348c-.053-.238-.766-.529-1.189-.608-4.651-.687-9.3-1.4-13.98-2.034a5.517,5.517,0,0,1-4.571-3.3q-3.013-6.3-6.158-12.526a5.873,5.873,0,0,0-1.083-1.216A5.737,5.737,0,0,0,58.351,64.908Zm35.543-5.523c-1.586,3.224-3.172,6.421-4.731,9.645a4.4,4.4,0,0,1-3.594,2.7c-2.088.29-4.149.608-6.236.925-1.983.29-3.964.608-6.105.926,1.031,1.083,1.956,1.955,2.775,2.906a4.18,4.18,0,0,0,2.88,1.4c2.458.29,4.916.713,7.347,1.084a4.617,4.617,0,0,1,4.069,3.3,4.776,4.776,0,0,1-1.454,5.179A58.747,58.747,0,0,1,83.9,92.127c-2.272,1.77-1.982,4.227-2.483,6.791.634-.29,1.031-.476,1.427-.687,3.093-1.638,6.21-3.224,9.275-4.916a4.953,4.953,0,0,1,5.153-.026c3.118,1.691,6.289,3.3,9.407,4.942.4.211.767.37,1.321.608-.026-.45-.026-.634-.053-.845-.634-3.727-1.241-7.479-1.956-11.2a4.627,4.627,0,0,1,1.454-4.572c2.617-2.536,5.206-5.074,7.8-7.636.291-.291.528-.634.925-1.084-4.227-.608-8.165-1.242-12.129-1.77a4.634,4.634,0,0,1-3.885-2.828c-1.559-3.224-3.17-6.422-4.756-9.645-.185-.37-.423-.74-.766-1.294C94.316,58.593,94.1,58.989,93.894,59.385ZM27.485,93.131c1.533.846,3.065,1.638,4.6,2.431,2.087,1.083,4.149,2.167,6.369,3.356,0-2.96-.211-3.514-2.008-5.258-2.22-2.168-4.44-4.335-6.633-6.5a4.8,4.8,0,0,1,2.669-8.272c2.907-.449,5.787-1,8.694-1.215,2.774-.185,3.752-2.457,5.813-4.017-.767-.131-1.11-.211-1.454-.263-3.646-.555-7.267-1.11-10.913-1.612a4.723,4.723,0,0,1-3.832-2.907c-1.56-3.224-3.172-6.447-4.757-9.645-.184-.371-.423-.714-.739-1.268-.344.66-.555,1.056-.74,1.452-1.586,3.172-3.145,6.342-4.7,9.54a4.666,4.666,0,0,1-3.806,2.775c-3.356.423-6.712.951-10.042,1.454-.687.079-1.347.211-2.008.316-.105.186-.211.371-.29.529a5.677,5.677,0,0,1,1.163.713c2.59,2.484,5.153,5.021,7.717,7.505a4.567,4.567,0,0,1,1.426,4.492c-.423,1.955-.713,3.964-1.031,5.973-.344,1.955-.66,3.937-1.031,6.184.635-.318,1.058-.476,1.427-.687,3.224-1.665,6.447-3.33,9.645-5.048a4.888,4.888,0,0,1,2.288-.618A4.507,4.507,0,0,1,27.485,93.131ZM86.758,34.545c3.2,13.714-4.836,29.729-20.242,33.507.9,1.823,1.8,3.646,2.775,5.629.555-2.7,1.665-3.779,4.175-4.175,3.541-.555,7.082-1.084,10.649-1.533a2.053,2.053,0,0,0,1.771-1.242c2.008-3.911,4.1-7.795,6.131-11.68a1.1,1.1,0,0,0,.105-.581,9.311,9.311,0,0,1,2.854-6.4,4.779,4.779,0,0,0,.74-6.131,9.622,9.622,0,0,1-.952-9.091,4.626,4.626,0,0,0-1.718-5.628,10.136,10.136,0,0,1-4.757-8.218,4.651,4.651,0,0,0-4.1-4.334,9.548,9.548,0,0,1-7.215-5.206A4.841,4.841,0,0,0,71.22,6.9,9.514,9.514,0,0,1,62.6,5.08a4.994,4.994,0,0,0-6.421,0A9.378,9.378,0,0,1,47.7,6.929a4.89,4.89,0,0,0-5.919,2.644,9.435,9.435,0,0,1-6.924,5.047c-2.775.528-4.122,2.061-4.386,4.889a9.345,9.345,0,0,1-4.122,7.267c-2.458,1.718-3.119,3.753-2.141,6.553a9.167,9.167,0,0,1-.871,8.193c-1.533,2.536-1.216,4.519.66,6.791A12.843,12.843,0,0,1,26.27,52.33c.423,1.241.687,2.3,1.929,3.038a3.8,3.8,0,0,1,1.162,1.691c1.665,3.278,3.224,6.581,4.916,9.832a2.161,2.161,0,0,0,1.347,1c3.012.5,6.052.871,9.064,1.347,2.141.317,4.44.317,5.629,2.933.766-1.533,1.373-2.827,2.035-4.1a28.13,28.13,0,0,1,6.9-55.336h.166A28.319,28.319,0,0,1,86.758,34.545ZM58.244,16.761c-13.133.924-22.964,11.283-22.937,24.126a24.028,24.028,0,0,0,17.705,23.15c1,.264,1.427.052,1.771-.847a5.2,5.2,0,0,1,2.959-3.144c2.538-.951,4.942.159,6.29,3.065a1.364,1.364,0,0,0,1.955.873A24.085,24.085,0,0,0,83.243,37.346C81.576,25.7,71.207,16.7,59.811,16.7,59.291,16.7,58.768,16.723,58.244,16.761Zm-3.409,34.22a1.973,1.973,0,1,1,.106-3.937c.871-.026,1.718,0,2.7,0v-16.7c-.5.371-.847.661-1.216.9a1.966,1.966,0,0,1-2.669-.4,1.811,1.811,0,0,1,.158-2.591c1.506-1.347,3.065-2.642,4.677-3.858A1.911,1.911,0,0,1,61.6,25.587a5.9,5.9,0,0,1,.08,1.374V47.045c.871,0,1.638-.026,2.4.026a1.957,1.957,0,1,1,.053,3.911q-2.32.04-4.651.04T54.835,50.981Z" transform="translate(0 0)" stroke="rgba(0,0,0,0)" stroke-miterlimit="10" stroke-width="1" fill="url(#linear-gradient)"/>
    <path id="Path_1896" data-name="Path 1896" d="M495.409-175.6a1.111,1.111,0,0,0,.2.75,1.11,1.11,0,0,1-.231-.75l1.645-9.436C496.477-181.895,495.928-178.75,495.409-175.6Z" transform="translate(-453.172 289.625)" fill="url(#linear-gradient)"/>
  </g>
</svg>
