<svg xmlns="http://www.w3.org/2000/svg" xmlns:xlink="http://www.w3.org/1999/xlink" width="134.617" height="135.68" viewBox="0 0 134.617 135.68">
  <defs>
    <linearGradient id="linear-gradient" x1="0.5" x2="0.5" y2="1" gradientUnits="objectBoundingBox">
      <stop offset="0" stop-color="#41a9e9"/>
      <stop offset="1" stop-color="#007ac3"/>
    </linearGradient>
  </defs>
  <g id="Group_2777" data-name="Group 2777" transform="translate(0 0)">
    <path id="Path_1917" data-name="Path 1917" d="M295.169,954.521c-8.125-.008-16.251.01-24.376-.032a2.826,2.826,0,0,1-1.736-.646c-3.024-2.719-6.432-2.733-9.443.111a1.349,1.349,0,0,1-1.752.281,31.246,31.246,0,0,0-3.782-1.564,1.546,1.546,0,0,1-1.288-1.746,6.306,6.306,0,0,0-6.469-6.437c-1.59-.021-3.18-.008-4.768-.005-4.33.01-6.912,2.51-7,6.869a1.182,1.182,0,0,1-.965,1.293,24.88,24.88,0,0,0-3.541,1.452,1.8,1.8,0,0,1-2.433-.363,6.364,6.364,0,0,0-8.963.01,3.236,3.236,0,0,1-1.959.742c-8.083.051-16.163.027-24.244.037a17.918,17.918,0,0,0-2.9.151c-7.884,1.32-13.052,7.474-13.055,15.565q-.02,35.11,0,70.217c0,9.368,6.538,15.9,15.906,15.914q13.051.016,26.1,0h1.675c-.262,2.038-.5,3.893-.745,5.812h-1.6c-3.62,0-7.243-.045-10.863.013a7.39,7.39,0,0,0-7.619,7.625q-.048,3.045,0,6.093a3.975,3.975,0,0,0,4.24,4.232q37.956.016,75.912,0a3.921,3.921,0,0,0,4.2-3.991c.074-2.247.087-4.505-.013-6.755a7.143,7.143,0,0,0-5.141-6.811,11.838,11.838,0,0,0-3.133-.389c-3.7-.045-7.4-.016-11.21-.016-.244-1.927-.474-3.747-.737-5.812h1.754q15.038,0,30.074-.005c9.268-.014,15.808-6.591,15.808-15.877q0-35.042,0-70.084C311.1,961.051,304.556,954.526,295.169,954.521ZM218.11,976.708q1.534-3.995,3.257-7.916a2.779,2.779,0,0,0-.456-3.5c-.66-.713-1.352-1.4-2.051-2.067a1.252,1.252,0,0,1-.05-2.048c1.132-1.119,2.261-2.234,3.374-3.371a1.23,1.23,0,0,1,2.035.037q.958,1.01,1.966,1.967a2.9,2.9,0,0,0,3.62.509q3.9-1.757,7.89-3.318a2.784,2.784,0,0,0,2.168-2.915c.019-.928.008-1.855.005-2.78-.005-.967.432-1.49,1.434-1.487q2.381.008,4.768,0a1.259,1.259,0,0,1,1.431,1.474q-.024,1.391,0,2.782a2.82,2.82,0,0,0,2.088,2.86c2.777,1.084,5.531,2.234,8.274,3.408a2.775,2.775,0,0,0,3.3-.443,26.228,26.228,0,0,1,2.287-2.2,1.737,1.737,0,0,1,1.582-.18c1.4,1.214,2.666,2.571,3.959,3.9a2.772,2.772,0,0,1,.345.808,8.085,8.085,0,0,1-.657.917c-.6.644-1.246,1.251-1.86,1.884-1.251,1.286-1.28,2.229-.559,3.814,1.161,2.557,2.221,5.162,3.217,7.786a2.881,2.881,0,0,0,2.881,2.248c.97.032,1.943.016,2.913.01a1.2,1.2,0,0,1,1.386,1.362c-.011,1.633-.005,3.268,0,4.9a1.178,1.178,0,0,1-1.314,1.309c-.97.018-1.943-.013-2.913.018-1.693.053-2.382.731-2.971,2.3-.973,2.587-2.033,5.147-3.183,7.659-.729,1.6-.7,2.547.53,3.819.644.665,1.3,1.317,1.964,1.969a1.2,1.2,0,0,1-.016,1.948c-1.161,1.148-2.311,2.308-3.464,3.464a1.166,1.166,0,0,1-1.85.013c-.726-.71-1.423-1.449-2.163-2.147a2.8,2.8,0,0,0-3.5-.493c-2.648,1.169-5.322,2.292-8.027,3.32a2.876,2.876,0,0,0-2.144,2.693c-.053,1.015-.032,2.033-.019,3.048.013.983-.424,1.465-1.434,1.45-1.59-.021-3.18-.014-4.768,0a1.2,1.2,0,0,1-1.365-1.381c.005-1.015.032-2.033-.019-3.045a2.865,2.865,0,0,0-2.213-2.772q-4-1.534-7.906-3.283a2.8,2.8,0,0,0-3.509.435c-.708.665-1.389,1.357-2.062,2.059a1.244,1.244,0,0,1-2.043.047c-1.145-1.166-2.308-2.311-3.461-3.469a1.16,1.16,0,0,1,.013-1.847c.718-.718,1.452-1.423,2.147-2.162a2.811,2.811,0,0,0,.464-3.509c-1.161-2.6-2.266-5.236-3.292-7.9a2.815,2.815,0,0,0-2.769-2.2c-.97-.045-1.943-.024-2.915-.013-1.034.011-1.545-.44-1.521-1.519.034-1.545.027-3.09.005-4.635-.016-1.01.466-1.447,1.452-1.431.97.013,1.943.027,2.913-.008A2.861,2.861,0,0,0,218.11,976.708Zm57.074,90.846a9.791,9.791,0,0,1,1.452.069,1.705,1.705,0,0,1,1.635,1.635c.074,1.8.021,3.6.021,5.518H204.766c0-1.879-.061-3.721.024-5.555a1.709,1.709,0,0,1,1.667-1.609,11.017,11.017,0,0,1,1.452-.058Q241.548,1067.55,275.184,1067.554Zm-50.311-5.438c.228-1.906.445-3.726.676-5.642h32.518c.233,1.834.464,3.66.716,5.642Zm80.9-21.538c0,6.268-4.216,10.447-10.492,10.447q-51.472,0-102.941,0c-6.347,0-10.516-4.179-10.519-10.553q-.008-35.042,0-70.084c0-6.358,4.19-10.535,10.542-10.542q9.807-.016,19.609,0h1.309a7.15,7.15,0,0,0,.782,6.053c-.612.026-1.068.066-1.521.069q-8.944,0-17.886,0c-4.232.005-7,2.724-7,6.938q-.016,29.012,0,58.028c0,4.182,2.7,6.9,6.867,6.907q18.549.024,37.1,0a7.409,7.409,0,0,0,1.057-.05,2.553,2.553,0,0,0,2.216-2.287,2.507,2.507,0,0,0-1.744-2.78,7.007,7.007,0,0,0-1.958-.212q-18.016-.016-36.035-.008c-1.993,0-2.165-.177-2.165-2.218v-56.7c0-2.059.228-2.29,2.261-2.29h18.681c-.164,2.07-.257,2.165-2.171,2.266a6.313,6.313,0,0,0-6.14,6.363c-.029,1.765-.021,3.533,0,5.3a6.3,6.3,0,0,0,6.345,6.564c1.185.029,1.81.35,1.958,1.526a2.393,2.393,0,0,0,.276.742c1.081,2.078,1.807,3.848-.284,6.088-1.815,1.945-1.156,5.253.723,7.293,1.378,1.492,2.812,2.939,4.3,4.315a6.257,6.257,0,0,0,8.836-.207,1.584,1.584,0,0,1,2.25-.369,23.2,23.2,0,0,0,3.66,1.511,1.218,1.218,0,0,1,.983,1.3c.183,4.524,2.629,6.843,7.132,6.848,1.458,0,2.915.008,4.373,0,3.97-.024,6.615-2.491,6.731-6.429a1.635,1.635,0,0,1,1.362-1.847,23.456,23.456,0,0,0,3.652-1.529,1.179,1.179,0,0,1,1.6.223c3.175,3.032,6.7,2.973,9.8-.1,1.126-1.121,2.266-2.234,3.363-3.382a6.3,6.3,0,0,0-.005-9.135,1.511,1.511,0,0,1-.371-2.131c.652-1.19,1.01-2.539,1.614-3.761a1.727,1.727,0,0,1,1.161-.874c4.587-.289,6.888-2.685,6.893-7.288,0-1.59.024-3.18-.013-4.768a6.307,6.307,0,0,0-5.989-6.238c-1.927-.125-1.927-.125-2.383-2.274,6.551,0,13,0,19.442,0a1.364,1.364,0,0,1,1.564,1.529c0,.265,0,.53,0,.795v56.571c0,2.192-.127,2.316-2.332,2.316h-35.11c-.352,0-.708-.008-1.06,0-1.789.058-3,1.142-3,2.684-.005,1.561,1.171,2.64,3,2.645,6.138.019,12.276.008,18.413.008q9.143,0,18.284,0c4.516-.005,7.148-2.64,7.148-7.166q.008-28.749,0-57.5c0-4.569-2.671-7.208-7.261-7.211q-8.809,0-17.621,0H273.43a7.236,7.236,0,0,0,.84-6.066c.485-.021.9-.056,1.322-.056q9.807-.008,19.609,0c6.36.01,10.566,4.182,10.569,10.518Q305.786,1005.471,305.77,1040.578Z" transform="translate(-176.485 -944.475)" fill="url(#linear-gradient)"/>
    <path id="Path_1918" data-name="Path 1918" d="M425.667,1279.309a2.613,2.613,0,0,1-2.648,2.7,2.584,2.584,0,0,1-2.69-2.642,2.667,2.667,0,0,1,2.7-2.666A2.705,2.705,0,0,1,425.667,1279.309Z" transform="translate(-355.706 -1188.653)" fill="url(#linear-gradient)"/>
    <path id="Path_1919" data-name="Path 1919" d="M378.84,1018.32a18.628,18.628,0,1,0,18.591,18.726A18.583,18.583,0,0,0,378.84,1018.32Zm-.024,31.9a13.279,13.279,0,1,1,13.264-13.325A13.24,13.24,0,0,1,378.816,1050.215Z" transform="translate(-311.489 -998.749)" fill="url(#linear-gradient)"/>
  </g>
</svg>
