<svg id="svgviewer-output_7_" data-name="svgviewer-output (7)" xmlns="http://www.w3.org/2000/svg" xmlns:xlink="http://www.w3.org/1999/xlink" width="148.894" height="114.152" viewBox="0 0 148.894 114.152">
  <defs>
    <linearGradient id="linear-gradient" x1="0.5" x2="0.5" y2="1" gradientUnits="objectBoundingBox">
      <stop offset="0" stop-color="#78f0f2"/>
      <stop offset="1" stop-color="#27d5d8"/>
    </linearGradient>
  </defs>
  <g id="Group_2767" data-name="Group 2767" transform="translate(0 0)">
    <path id="Path_1902" data-name="Path 1902" d="M131.454,106.98C130.017,80.715,105,59.733,74.447,59.733S18.877,80.715,17.44,106.98C7.487,107.7,0,112.846,0,119.291v9.926c0,6.958,8.72,12.408,19.853,12.408a2.479,2.479,0,0,0,2.481-2.481V109.365c0-24.63,23.379-44.668,52.113-44.668s52.113,20.039,52.113,44.668v28.751l-5.99,5.99h-5.137a53.477,53.477,0,0,0,3.683-19.577c0-27.215-20.039-49.356-44.668-49.356s-44.668,22.14-44.668,49.356,20.038,49.356,44.668,49.356c16.542,0,30.98-10.011,38.7-24.816h8.45a2.471,2.471,0,0,0,1.754-.727l6.735-6.735c10.628-.327,18.808-5.65,18.808-12.391v-9.926C148.894,112.846,141.407,107.7,131.454,106.98ZM17.371,136.555C9.946,135.9,4.963,132.4,4.963,129.217v-9.926c0-3.179,4.983-6.685,12.408-7.338Zm92.657,7.554H86.855a7.454,7.454,0,0,0-7.445-7.445H69.484a7.454,7.454,0,0,0-7.445,7.445v4.963a7.454,7.454,0,0,0,7.445,7.445H79.41a7.454,7.454,0,0,0,7.445-7.445h20.652c-7.122,11.951-19.277,19.85-33.059,19.85-21.892,0-39.705-19.912-39.705-44.393s17.813-44.39,39.705-44.39,39.705,19.912,39.705,44.393A48.333,48.333,0,0,1,110.028,144.109Zm-28.136,0v4.963a2.482,2.482,0,0,1-2.481,2.482H69.484A2.482,2.482,0,0,1,67,149.07v-4.963a2.482,2.482,0,0,1,2.481-2.482H79.41A2.482,2.482,0,0,1,81.892,144.107Zm62.039-14.889c0,3.179-4.983,6.685-12.408,7.338v-24.6c7.425.653,12.408,4.159,12.408,7.338Z" transform="translate(0 -59.733)" fill="url(#linear-gradient)"/>
  </g>
</svg>
