<svg xmlns="http://www.w3.org/2000/svg" xmlns:xlink="http://www.w3.org/1999/xlink" width="158.32" height="109.16" viewBox="0 0 158.32 109.16">
  <defs>
    <linearGradient id="linear-gradient" x1="0.5" x2="0.5" y2="1" gradientUnits="objectBoundingBox">
      <stop offset="0" stop-color="#bda2e2"/>
      <stop offset="1" stop-color="#8846e4"/>
    </linearGradient>
  </defs>
  <g id="Group_2821" data-name="Group 2821" transform="translate(0.482 0.5)">
    <path id="Union_7" data-name="Union 7" d="M36.128,91.784c.3-15.551,10.269-28.35,25.3-31.7a33.307,33.307,0,0,1,7.144-.743c6.7-.075,13.468-.075,20.165,0a31.8,31.8,0,0,1,31.847,26.266c.745,3.944,1.043,8.035-.223,11.906a15.167,15.167,0,0,1-14.808,10.566c-9,.073-17.932,0-26.935,0-8.707,0-17.412-.149-26.118.073-.139,0-.278.006-.416.006A15.873,15.873,0,0,1,36.128,91.784Zm29.1-23.961C52.945,69.759,44.612,79.433,44.612,91.932c0,4.986,2.753,7.814,7.738,7.814h53.2a6.868,6.868,0,0,0,7.144-6.921,22.838,22.838,0,0,0-.3-5.06c-2.009-12.054-11.608-20.016-23.736-20.09H68.646A26.445,26.445,0,0,0,65.223,67.823Zm70.4,30.677h-.085c-1.9-.006-3.859-.011-5.794-.011-1.2,0-2.389,0-3.393-.009a18.018,18.018,0,0,0,.24-2.844,18.63,18.63,0,0,0-.187-2.548h20.8a4.431,4.431,0,0,0,4.631-4.486,14.919,14.919,0,0,0-.193-3.278A15.243,15.243,0,0,0,136.25,72.3H123.277a16.863,16.863,0,0,0-2.218.1c-.311.049-.62.106-.923.17a15.686,15.686,0,0,0-3.056-4.788c.512-.153,1.023-.285,1.521-.4a21.28,21.28,0,0,1,4.628-.484c2.161-.025,4.36-.037,6.535-.037s4.374.012,6.535.037a20.607,20.607,0,0,1,20.638,17.022,15.13,15.13,0,0,1-.145,7.716,9.858,9.858,0,0,1-9.6,6.848c-1.745.014-3.649.021-5.822.021C139.454,98.511,137.5,98.505,135.619,98.5ZM10.161,98.49a9.859,9.859,0,0,1-9.6-6.848,15.13,15.13,0,0,1-.145-7.716A20.606,20.606,0,0,1,21.057,66.9c2.161-.025,4.36-.037,6.535-.037s4.374.012,6.534.037a21.265,21.265,0,0,1,4.628.484c.5.11,1.008.242,1.52.4a15.734,15.734,0,0,0-3.056,4.788c-.3-.064-.612-.121-.922-.17a16.872,16.872,0,0,0-2.218-.1H21.106A15.243,15.243,0,0,0,5.724,85.325,14.774,14.774,0,0,0,5.53,88.6a4.43,4.43,0,0,0,4.63,4.486h20.8a18.8,18.8,0,0,0-.186,2.548,17.885,17.885,0,0,0,.24,2.844c-1,0-2.194.009-3.395.009-1.934,0-3.9,0-5.793.011h-.085c-1.886,0-3.836.011-5.753.011C13.81,98.511,11.905,98.5,10.161,98.49ZM111.574,46.675A18.2,18.2,0,1,1,129.8,64.806,18.162,18.162,0,0,1,111.574,46.675Zm5.449-.049A12.779,12.779,0,1,0,129.8,33.848,12.719,12.719,0,0,0,117.023,46.626ZM9.373,46.579a18.2,18.2,0,1,1,18.18,18.227A18.174,18.174,0,0,1,9.373,46.579Zm5.4.047A12.779,12.779,0,1,0,27.553,33.848,12.8,12.8,0,0,0,14.775,46.626Zm35.813-18.5A28.09,28.09,0,1,1,78.714,56.105,28.026,28.026,0,0,1,50.587,28.128ZM59,28.053A19.719,19.719,0,1,0,78.714,8.335,19.626,19.626,0,0,0,59,28.053Z" transform="translate(0 0)" stroke="rgba(0,0,0,0)" stroke-miterlimit="10" stroke-width="1" fill="url(#linear-gradient)"/>
  </g>
</svg>
