<svg xmlns="http://www.w3.org/2000/svg" xmlns:xlink="http://www.w3.org/1999/xlink" width="135.238" height="135.238" viewBox="0 0 135.238 135.238">
  <defs>
    <linearGradient id="linear-gradient" x1="0.5" x2="0.5" y2="1" gradientUnits="objectBoundingBox">
      <stop offset="0" stop-color="#88d29c"/>
      <stop offset="1" stop-color="#10de48"/>
    </linearGradient>
  </defs>
  <path id="svgviewer-output_9_" data-name="svgviewer-output (9)" d="M12.225,89.9H43.734a177.594,177.594,0,0,1,0-40.572H12.225a61.148,61.148,0,0,0,0,40.572Zm2.863,6.762a60.972,60.972,0,0,0,41.2,32.344c-5.268-7.171-9.3-18.57-11.592-32.344ZM127.014,89.9a61.151,61.151,0,0,0,0-40.572H95.5a172.9,172.9,0,0,1,1.162,20.286A172.893,172.893,0,0,1,95.5,89.9Zm-2.863,6.762H94.545c-2.288,13.775-6.323,25.173-11.591,32.344a60.973,60.973,0,0,0,41.2-32.344ZM50.58,89.9H88.658A162.622,162.622,0,0,0,89.9,69.619a162.623,162.623,0,0,0-1.247-20.286H50.58a165.638,165.638,0,0,0,0,40.572ZM51.6,96.667c3.531,20.068,10.7,33.81,18.021,33.81s14.489-13.742,18.021-33.81Zm-36.511-54.1H44.693C46.981,28.8,51.016,17.4,56.285,10.227a60.971,60.971,0,0,0-41.2,32.344Zm109.063,0a60.972,60.972,0,0,0-41.2-32.344c5.268,7.171,9.3,18.569,11.591,32.344Zm-72.552,0H87.64C84.109,22.5,76.935,8.762,69.619,8.762S55.13,22.5,51.6,42.572Zm18.021,94.667a67.619,67.619,0,1,1,67.619-67.619A67.619,67.619,0,0,1,69.619,137.238Z" transform="translate(-2 -2)" fill="url(#linear-gradient)"/>
</svg>
